# xmcd
#
# Track frame offsets: 
#        150
#        19375
#        37284
#        53567
#        74820
#        93412
#        110729
#        130665
#        148191
#        164844
#        179487
#
# Disc length: 2696 seconds
#
# Revision: 0
# Processed by: cddbd v1.5.2PL0 Copyright (c) Steve Scherf et al.
# Submitted via: ExactAudioCopy v0.99pb5
#
DISCID=b00a860b
DTITLE=Dion - Tank Full Of Blues
DYEAR=2012
DGENRE=Rock and Roll
TTITLE0=Tank Full Of Blues
TTITLE1=I Read It (In The Rolling Stone)
TTITLE2=Holly Brown
TTITLE3=Ride's Blues (For Robert Johnson)
TTITLE4=Two Train
TTITLE5=Do You Love Me Baby
TTITLE6=You Keep Me Cryin'
TTITLE7=My Michelle
TTITLE8=My Baby's Cryin'
TTITLE9=I'm Ready To Go
TTITLE10=Bronx Poem
EXTD=
EXTT0=
EXTT1=
EXTT2=
EXTT3=
EXTT4=
EXTT5=
EXTT6=
EXTT7=
EXTT8=
EXTT9=
EXTT10=
PLAYORDER=
